<svg width="923" height="226" viewBox="0 0 923 226" fill="none" xmlns="http://www.w3.org/2000/svg">
<path fill-rule="evenodd" clip-rule="evenodd" d="M65.5189 82.336C64.9013 81.2643 64.3962 80.1585 64 79.0322H108.789L124.296 105.941L101.709 145.134L122.718 181.59C120.846 176.356 121.197 170.362 124.189 165.17L141.309 135.462L140.933 134.809L173.076 79.0322H218.007C217.658 79.9159 217.239 80.785 216.752 81.6326L159.642 180.732C158.163 185.051 155.179 188.875 150.922 191.337C141.566 196.749 129.603 193.537 124.201 184.164L65.5189 82.336Z" fill="#514FFA"/>
<path fill-rule="evenodd" clip-rule="evenodd" d="M126.52 109.801L108.789 79.0322H64C64.3962 80.1585 64.9013 81.2643 65.5189 82.336L103.934 148.994L126.52 109.801Z" fill="#1ADCFA"/>
<path fill-rule="evenodd" clip-rule="evenodd" d="M160.525 181.114L158.908 183.921C153.354 193.557 141.055 196.858 131.437 191.294C121.818 185.731 118.523 173.409 124.076 163.774L141.29 133.903L158.921 164.496C161.947 169.748 162.345 175.796 160.525 181.114Z" fill="#0C32B5"/>
<path d="M180.928 71.1936C180.928 49.5476 198.443 32 220.05 32H256.563C256.563 53.6459 239.049 71.1936 217.442 71.1936H180.928Z" fill="#EF9308"/>
<path d="M316 167V86.08H330.98V167H316ZM316 74.04V58.36H330.98V74.04H316Z" fill="#1E1E1E"/>
<path d="M347.012 167V86.08H361.992V94.06C364.699 91.54 367.686 89.3933 370.952 87.62C374.219 85.8467 377.812 84.96 381.732 84.96C384.999 84.96 387.472 85.8 389.152 87.48C390.926 89.16 392.139 91.26 392.792 93.78C393.539 96.3 393.912 98.8666 393.912 101.48V167H378.932V105.82C378.932 102.927 378.512 100.687 377.672 99.1C376.832 97.5133 375.106 96.72 372.492 96.72C370.812 96.72 369.039 97.2333 367.172 98.26C365.399 99.1933 363.672 100.36 361.992 101.76V167H347.012Z" fill="#1E1E1E"/>
<path d="M408.536 167V86.08H423.516V94.06C426.222 91.54 429.209 89.3933 432.476 87.62C435.742 85.8467 439.336 84.96 443.256 84.96C446.522 84.96 448.996 85.8 450.676 87.48C452.449 89.16 453.662 91.26 454.316 93.78C455.062 96.3 455.436 98.8666 455.436 101.48V167H440.456V105.82C440.456 102.927 440.036 100.687 439.196 99.1C438.356 97.5133 436.629 96.72 434.016 96.72C432.336 96.72 430.562 97.2333 428.696 98.26C426.922 99.1933 425.196 100.36 423.516 101.76V167H408.536Z" fill="#1E1E1E"/>
<path d="M492.319 168.12C486.346 168.12 481.632 166.907 478.179 164.48C474.726 162.053 472.252 158.6 470.759 154.12C469.359 149.64 468.659 144.367 468.659 138.3V114.78C468.659 108.713 469.359 103.44 470.759 98.96C472.252 94.48 474.726 91.0267 478.179 88.6C481.632 86.1733 486.346 84.96 492.319 84.96C498.292 84.96 502.959 86.1733 506.319 88.6C509.772 91.0267 512.199 94.48 513.599 98.96C515.092 103.44 515.839 108.713 515.839 114.78V138.3C515.839 144.367 515.092 149.64 513.599 154.12C512.199 158.6 509.772 162.053 506.319 164.48C502.959 166.907 498.292 168.12 492.319 168.12ZM492.319 157.06C495.212 157.06 497.219 156.22 498.339 154.54C499.552 152.86 500.252 150.667 500.439 147.96C500.719 145.16 500.859 142.267 500.859 139.28V113.94C500.859 110.86 500.719 107.967 500.439 105.26C500.252 102.553 499.552 100.36 498.339 98.68C497.219 96.9067 495.212 96.02 492.319 96.02C489.426 96.02 487.372 96.9067 486.159 98.68C484.946 100.36 484.199 102.553 483.919 105.26C483.732 107.967 483.639 110.86 483.639 113.94V139.28C483.639 142.267 483.732 145.16 483.919 147.96C484.199 150.667 484.946 152.86 486.159 154.54C487.372 156.22 489.426 157.06 492.319 157.06Z" fill="#1E1E1E"/>
<path d="M540.032 167L524.072 86.08H539.192L549.132 151.18L559.212 86.08H573.772L558.372 167H540.032Z" fill="#1E1E1E"/>
<path d="M584.379 167V86.08H599.359V167H584.379ZM584.379 74.04V58.36H599.359V74.04H584.379Z" fill="#1E1E1E"/>
<path d="M634.151 168.12C627.524 168.12 622.204 166.067 618.191 161.96C614.178 157.76 611.891 152.253 611.331 145.44L623.791 141.66C624.538 146.793 625.798 150.667 627.571 153.28C629.344 155.8 631.958 157.06 635.411 157.06C638.118 157.06 640.171 156.313 641.571 154.82C642.971 153.233 643.671 151.133 643.671 148.52C643.671 146.187 643.158 144.087 642.131 142.22C641.104 140.353 639.424 138.44 637.091 136.48L623.231 124.58C620.431 122.153 618.051 119.447 616.091 116.46C614.224 113.473 613.291 109.6 613.291 104.84C613.291 100.547 614.131 96.9533 615.811 94.06C617.584 91.0733 620.011 88.8333 623.091 87.34C626.264 85.7533 629.951 84.96 634.151 84.96C640.591 84.96 645.491 87.06 648.851 91.26C652.304 95.3667 654.264 100.36 654.731 106.24L644.651 110.02C644.278 107.22 643.718 104.793 642.971 102.74C642.224 100.593 641.198 98.96 639.891 97.84C638.584 96.6267 636.858 96.02 634.711 96.02C632.284 96.02 630.324 96.86 628.831 98.54C627.431 100.127 626.731 102.04 626.731 104.28C626.731 105.68 627.011 107.08 627.571 108.48C628.224 109.787 629.298 111.093 630.791 112.4L645.071 125.56C647.031 127.333 648.851 129.247 650.531 131.3C652.304 133.353 653.751 135.687 654.871 138.3C655.991 140.913 656.551 143.947 656.551 147.4C656.551 151.973 655.618 155.8 653.751 158.88C651.884 161.96 649.271 164.293 645.911 165.88C642.551 167.373 638.631 168.12 634.151 168.12Z" fill="#1E1E1E"/>
<path d="M686.514 168.12C679.888 168.12 674.568 166.067 670.554 161.96C666.541 157.76 664.254 152.253 663.694 145.44L676.154 141.66C676.901 146.793 678.161 150.667 679.934 153.28C681.708 155.8 684.321 157.06 687.774 157.06C690.481 157.06 692.534 156.313 693.934 154.82C695.334 153.233 696.034 151.133 696.034 148.52C696.034 146.187 695.521 144.087 694.494 142.22C693.468 140.353 691.788 138.44 689.454 136.48L675.594 124.58C672.794 122.153 670.414 119.447 668.454 116.46C666.588 113.473 665.654 109.6 665.654 104.84C665.654 100.547 666.494 96.9533 668.174 94.06C669.948 91.0733 672.374 88.8333 675.454 87.34C678.628 85.7533 682.314 84.96 686.514 84.96C692.954 84.96 697.854 87.06 701.214 91.26C704.668 95.3667 706.628 100.36 707.094 106.24L697.014 110.02C696.641 107.22 696.081 104.793 695.334 102.74C694.588 100.593 693.561 98.96 692.254 97.84C690.948 96.6267 689.221 96.02 687.074 96.02C684.648 96.02 682.688 96.86 681.194 98.54C679.794 100.127 679.094 102.04 679.094 104.28C679.094 105.68 679.374 107.08 679.934 108.48C680.588 109.787 681.661 111.093 683.154 112.4L697.434 125.56C699.394 127.333 701.214 129.247 702.894 131.3C704.668 133.353 706.114 135.687 707.234 138.3C708.354 140.913 708.914 143.947 708.914 147.4C708.914 151.973 707.981 155.8 706.114 158.88C704.248 161.96 701.634 164.293 698.274 165.88C694.914 167.373 690.994 168.12 686.514 168.12Z" fill="#1E1E1E"/>
<path d="M721.098 167V86.08H736.078V167H721.098ZM721.098 74.04V58.36H736.078V74.04H721.098Z" fill="#1E1E1E"/>
<path d="M774.37 168.12C768.397 168.12 763.683 166.907 760.23 164.48C756.777 162.053 754.303 158.6 752.81 154.12C751.41 149.64 750.71 144.367 750.71 138.3V114.78C750.71 108.713 751.41 103.44 752.81 98.96C754.303 94.48 756.777 91.0267 760.23 88.6C763.683 86.1733 768.397 84.96 774.37 84.96C780.343 84.96 785.01 86.1733 788.37 88.6C791.823 91.0267 794.25 94.48 795.65 98.96C797.143 103.44 797.89 108.713 797.89 114.78V138.3C797.89 144.367 797.143 149.64 795.65 154.12C794.25 158.6 791.823 162.053 788.37 164.48C785.01 166.907 780.343 168.12 774.37 168.12ZM774.37 157.06C777.263 157.06 779.27 156.22 780.39 154.54C781.603 152.86 782.303 150.667 782.49 147.96C782.77 145.16 782.91 142.267 782.91 139.28V113.94C782.91 110.86 782.77 107.967 782.49 105.26C782.303 102.553 781.603 100.36 780.39 98.68C779.27 96.9067 777.263 96.02 774.37 96.02C771.477 96.02 769.423 96.9067 768.21 98.68C766.996 100.36 766.25 102.553 765.97 105.26C765.783 107.967 765.69 110.86 765.69 113.94V139.28C765.69 142.267 765.783 145.16 765.97 147.96C766.25 150.667 766.996 152.86 768.21 154.54C769.423 156.22 771.477 157.06 774.37 157.06Z" fill="#1E1E1E"/>
<path d="M811.582 167V86.08H826.562V94.06C829.269 91.54 832.256 89.3933 835.523 87.62C838.789 85.8467 842.383 84.96 846.302 84.96C849.569 84.96 852.042 85.8 853.722 87.48C855.496 89.16 856.709 91.26 857.362 93.78C858.109 96.3 858.482 98.8666 858.482 101.48V167H843.503V105.82C843.503 102.927 843.083 100.687 842.242 99.1C841.402 97.5133 839.676 96.72 837.062 96.72C835.383 96.72 833.609 97.2333 831.742 98.26C829.969 99.1933 828.242 100.36 826.562 101.76V167H811.582Z" fill="#1E1E1E"/>
</svg>
